<?xml version="1.0" standalone="no"?>
<svg xmlns="http://www.w3.org/2000/svg" viewBox="0 0 85 72" width="85" height="72"><g fill="#51be95" color="#51be95" transform="translate(20.456 0) scale(0.9166667) "><svg width="48.0" height="48.0" x="0.0" y="0.0" viewBox="0 0 48 48"><path fill="currentColor" fill-rule="nonzero" d="M47.02 19.92c.24 1.34.38 2.72.37 4.13 0 .55-.04 1.08-.08 1.62-5 5.07-11.94 8.22-19.6 8.22h-7.87c-5.32 0-10.03 2.66-12.88 6.72-.94-.96-1.81-2.01-2.58-3.12 3.61-4.59 9.19-7.54 15.47-7.54h7.87c7.98 0 15.02-3.97 19.3-10.03zm-27.17 6.1c-6.96 0-13.2 3.03-17.53 7.82-.6-1.32-1.08-2.7-1.44-4.14 4.95-4.71 11.62-7.62 18.97-7.62h7.87c7.31 0 13.46-5.03 15.22-11.8 1 1.39 1.87 2.88 2.55 4.47-3.16 6.66-9.92 11.27-17.77 11.27h-7.87zm0-11.81l7.87-.02c4.34 0 7.87-3.53 7.87-7.87V3.61c1.41.82 2.73 1.78 3.93 2.86-.08 6.45-5.34 11.67-11.8 11.67h-7.87c-7.43 0-14.24 2.6-19.63 6.91-.01-.33-.05-.66-.05-1 0-1.4.15-2.75.38-4.08 5.56-3.63 12.18-5.76 19.3-5.76zm0-3.94c-6.35 0-12.33 1.55-17.65 4.24C5.87 6.23 14.15.44 23.79.44c2.76 0 5.4.5 7.87 1.37v4.52c0 2.17-1.77 3.94-3.94 3.94h-7.87zm7.88 27.55c6.83 0 13.14-2.21 18.32-5.93-3.24 9.18-11.96 15.77-22.25 15.77-5.16 0-9.92-1.68-13.81-4.49 2.11-3.22 5.74-5.35 9.87-5.35h7.87z"></path></svg></g><path fill="#0466b2" fill-rule="nonzero" d="M2.66 19.61L0 19.61L0 0.17L2.66 0.17L2.66 19.61ZM8.11 19.61L5.81 19.61L5.81 0.17L7.66 0.17L13.18 13.08L13.18 0.17L15.43 0.17L15.43 19.61L13.70 19.61L8.11 6.34L8.11 19.61ZM23.06 19.82L23.06 19.82Q21.38 19.82 20.27 19.10Q19.15 18.38 18.58 17.11Q18 15.84 17.90 14.16L17.90 14.16L20.30 13.51Q20.38 14.54 20.63 15.50Q20.88 16.46 21.46 17.08Q22.03 17.69 23.06 17.69L23.06 17.69Q24.12 17.69 24.66 17.10Q25.20 16.51 25.20 15.41L25.20 15.41Q25.20 14.09 24.60 13.28Q24 12.48 23.09 11.66L23.09 11.66L19.82 8.78Q18.86 7.94 18.41 6.95Q17.95 5.95 17.95 4.49L17.95 4.49Q17.95 2.35 19.18 1.18Q20.40 0 22.51 0L22.51 0Q23.66 0 24.54 0.30Q25.42 0.60 26.00 1.22Q26.59 1.85 26.94 2.80Q27.29 3.74 27.41 5.02L27.41 5.02L25.10 5.64Q25.03 4.68 24.82 3.88Q24.60 3.07 24.06 2.58Q23.52 2.09 22.51 2.09L22.51 2.09Q21.50 2.09 20.94 2.63Q20.38 3.17 20.38 4.22L20.38 4.22Q20.38 5.11 20.68 5.69Q20.98 6.26 21.65 6.86L21.65 6.86L24.94 9.74Q26.04 10.70 26.88 12.04Q27.72 13.37 27.72 15.19L27.72 15.19Q27.72 16.63 27.12 17.68Q26.52 18.72 25.48 19.27Q24.43 19.82 23.06 19.82ZM32.54 19.61L29.83 19.61L29.83 0.17L34.66 0.17Q36.41 0.17 37.45 0.80Q38.50 1.44 38.98 2.64Q39.46 3.84 39.46 5.54L39.46 5.54Q39.46 7.08 38.92 8.21Q38.38 9.34 37.32 9.95Q36.26 10.56 34.68 10.56L34.68 10.56L32.54 10.56L32.54 19.61ZM32.54 2.11L32.54 8.62L33.79 8.62Q34.97 8.62 35.64 8.35Q36.31 8.09 36.60 7.43Q36.89 6.77 36.89 5.57L36.89 5.57Q36.89 4.18 36.68 3.43Q36.48 2.69 35.83 2.40Q35.18 2.11 33.82 2.11L33.82 2.11L32.54 2.11ZM44.16 19.61L41.50 19.61L41.50 0.17L44.16 0.17L44.16 19.61ZM49.46 19.61L47.26 19.61L47.62 0.17L50.28 0.17L53.71 15.94L57.17 0.17L59.81 0.17L60.17 19.61L57.98 19.61L57.77 5.50L54.48 19.61L52.94 19.61L49.68 5.50L49.46 19.61ZM64.63 19.61L62.09 19.61L66.22 0.17L68.83 0.17L72.98 19.61L70.42 19.61L69.53 14.71L65.57 14.71L64.63 19.61ZM67.54 4.01L65.93 12.77L69.17 12.77L67.54 4.01ZM79.49 19.85L79.49 19.85Q77.66 19.85 76.57 19.07Q75.48 18.29 74.99 16.80Q74.50 15.31 74.50 13.22L74.50 13.22L74.50 6.72Q74.50 4.58 74.94 3.08Q75.38 1.58 76.52 0.79Q77.66 0 79.70 0L79.70 0Q81.53 0 82.64 0.61Q83.76 1.22 84.26 2.48Q84.77 3.74 84.77 5.66L84.77 5.66L84.77 6.38L82.22 6.38L82.22 5.78Q82.22 4.51 82.06 3.71Q81.89 2.90 81.37 2.51Q80.86 2.11 79.75 2.11L79.75 2.11Q78.55 2.11 78.01 2.66Q77.47 3.22 77.34 4.16Q77.21 5.11 77.21 6.31L77.21 6.31L77.21 13.51Q77.21 14.90 77.41 15.84Q77.62 16.78 78.19 17.23Q78.77 17.69 79.82 17.69L79.82 17.69Q80.88 17.69 81.46 17.18Q82.03 16.68 82.25 15.70Q82.46 14.71 82.46 13.25L82.46 13.25L82.46 11.90L79.99 11.90L79.99 9.98L84.91 9.98L84.91 19.61L83.21 19.61L82.94 17.38Q82.56 18.46 81.74 19.15Q80.93 19.85 79.49 19.85Z" transform="translate(0, 52)"></path></svg>